PathFileType	4	(X/Y/Z)	C:/Users/opensim2020/Desktop/walking_exp_matlab/subject06_walking18_straight_01.trc	
DataRate	CameraRate	NumFrames	NumMarkers	Units	OrigDataRate	OrigDataStartFrame	OrigNumFrames	
100.00	100.00	7	47	mm	100.00	1265	396	
Frame#	Time	LFHD			RFHD			LBHD			RBHD			C7			T10			CLAV			STRN			RBAK			LSHO			LUPA			LELB			LFRM			LWRA			LWRB			LFIN			RSHO			RUPA			RELB			RFRM			RWRA			RWRB			RFIN			LASI			RASI			LPSI			RPSI			LTHI			LKNE			LTIB			LANK			LHEE			LTOE			RTHI			RKNE			RTIB			RANK			RHEE			RTOE			*39			*40			*41			*42			*43			*44			*45			*46			
		X1	Y1	Z1	X2	Y2	Z2	X3	Y3	Z3	X4	Y4	Z4	X5	Y5	Z5	X6	Y6	Z6	X7	Y7	Z7	X8	Y8	Z8	X9	Y9	Z9	X10	Y10	Z10	X11	Y11	Z11	X12	Y12	Z12	X13	Y13	Z13	X14	Y14	Z14	X15	Y15	Z15	X16	Y16	Z16	X17	Y17	Z17	X18	Y18	Z18	X19	Y19	Z19	X20	Y20	Z20	X21	Y21	Z21	X22	Y22	Z22	X23	Y23	Z23	X24	Y24	Z24	X25	Y25	Z25	X26	Y26	Z26	X27	Y27	Z27	X28	Y28	Z28	X29	Y29	Z29	X30	Y30	Z30	X31	Y31	Z31	X32	Y32	Z32	X33	Y33	Z33	X34	Y34	Z34	X35	Y35	Z35	X36	Y36	Z36	X37	Y37	Z37	X38	Y38	Z38	X39	Y39	Z39	X40	Y40	Z40	X41	Y41	Z41	X42	Y42	Z42	X43	Y43	Z43	X44	Y44	Z44	X45	Y45	Z45	X46	Y46	Z46	X47	Y47	Z47	

248	2.470	1309.32581	585.42523	1668.02979	1440.14648	586.72485	1658.51892	1312.09094	451.14633	1616.87988	1441.69324	454.05759	1612.70544	1371.57617	446.74521	1460.19897	1389.48535	402.88028	1132.16492	1371.54504	555.19012	1381.77869	1367.67297	591.46094	1205.16565	1457.36450	370.98547	1293.68945	1211.22742	501.11420	1412.38965	1131.58606	518.53992	1213.04895	1114.50806	534.51215	1102.13049	1096.77258	599.50525	965.72632	1149.27075	681.44635	871.63831	1102.84863	632.14526	850.93365	1109.03516	694.63147	785.96436	1532.31592	515.26001	1417.55298	1622.15088	480.60236	1219.41394	1633.10815	489.27444	1097.46985	1651.36902	501.15359	977.86884	1620.20447	552.01050	834.46033	1662.85706	500.83606	840.05200	1664.32104	532.60950	761.23334	1278.27319	574.37415	966.04883	1499.97363	582.13721	979.26123	1312.34143	417.77588	997.68433	1479.73499	428.12976	1000.06219	1239.93225	485.94394	652.99829	1265.37402	471.19687	489.47205	1289.58496	412.69516	238.43683	1345.78784	400.47891	69.35315	1394.97351	363.11801	58.42395	1336.73608	545.36926	38.55934	1570.05518	586.21838	650.02679	1548.53564	624.11871	528.89734	1555.70752	581.19714	269.83795	1521.38416	565.65186	82.65565	1476.01770	527.21356	56.08231	1525.58105	713.73291	46.86113	1369.41260	486.76172	1709.34448																					 
249	2.480	1309.70764	590.90021	1667.62537	1441.37488	592.96985	1658.53125	1312.03174	456.47852	1616.52319	1441.62573	459.26770	1612.25513	1371.35950	451.99484	1459.74500	1389.31946	408.27213	1131.69763	1371.62122	560.52130	1381.40002	1367.73682	596.99951	1204.84790	1457.03918	376.08664	1293.16138	1211.17346	506.66803	1412.01550	1131.42297	524.82788	1212.82556	1114.33752	541.49469	1101.91016	1097.31116	607.87067	966.26532	1149.73743	691.57043	873.66858	1103.83948	642.34290	851.90948	1110.02551	705.77069	787.85590	1532.25635	520.09509	1417.16162	1622.04993	485.20279	1219.06873	1633.10950	493.84091	1097.17273	1651.43262	505.49332	977.51691	1620.39746	556.38470	834.10443	1662.98718	505.09161	839.69550	1664.58337	536.94434	760.90857	1278.11316	579.67474	965.67554	1499.60803	587.67828	978.98956	1312.06970	423.20914	997.21283	1479.42297	433.72913	999.62421	1239.84570	490.88129	652.48346	1265.43726	475.31036	489.05597	1289.60999	414.85870	238.44479	1345.93933	400.81110	69.57742	1394.96875	363.56119	58.79226	1336.87268	545.58350	38.49003	1570.55481	591.36041	649.65570	1548.57202	630.10571	528.63824	1555.62207	596.09692	268.76746	1521.30225	586.68219	81.27293	1476.73828	548.11078	54.51977	1522.19995	735.21173	47.44041	1369.46667	491.98056	1708.94531																					 
250	2.490	1309.76990	596.15216	1667.29102	1440.59460	596.93628	1657.65747	1311.95911	461.84509	1616.14001	1441.56641	464.36411	1611.78442	1371.26917	457.20764	1459.30188	1389.13318	413.78696	1131.11890	1371.69836	565.84216	1381.03564	1367.86719	602.41284	1204.49146	1456.65002	381.31390	1292.53345	1211.15100	512.25604	1411.55212	1131.29260	531.12421	1212.51221	1114.31445	548.33081	1101.64709	1097.46033	616.55505	966.72803	1150.37097	701.51807	875.66193	1104.98657	652.19727	852.74457	1111.31580	716.64447	789.70856	1532.30408	524.91730	1416.75281	1622.00024	489.74487	1218.63037	1633.26184	498.13745	1096.82300	1651.54529	509.90482	977.12939	1620.71045	560.81598	833.66949	1663.15479	509.45993	839.32806	1664.63806	541.14777	760.41821	1277.82263	585.03662	965.24298	1499.27661	593.23700	978.63354	1311.80286	428.62769	996.69067	1479.15991	439.36548	999.10327	1239.84705	495.83957	652.05243	1265.45544	479.58527	488.65350	1289.55920	416.84726	238.61328	1345.95923	401.10397	69.83911	1394.96936	363.50870	59.39675	1337.00818	545.72296	38.43807	1571.15088	596.67279	649.18427	1548.47351	636.01923	528.27997	1555.69116	610.88165	267.95004	1521.31189	606.89276	80.37239	1477.94421	567.58691	53.86787	1518.85657	755.90564	48.11682	1369.52039	497.21942	1708.51355																					 
251	2.500	1310.29614	601.61139	1666.86377	1441.91821	603.14453	1657.67407	1312.00269	467.16626	1615.73743	1441.58130	469.42761	1611.33215	1371.08105	462.60114	1458.84558	1389.03882	419.23895	1130.58386	1371.89063	571.16809	1380.62744	1367.98523	607.86157	1204.11316	1456.35291	386.50793	1291.93652	1211.18567	517.86755	1411.08594	1131.44006	537.46924	1212.05273	1114.37891	555.08813	1101.23083	1098.28760	624.62799	967.00470	1151.14441	711.23993	877.56024	1106.28821	661.95593	853.57288	1112.72571	727.23712	791.41095	1532.41016	529.77917	1416.25415	1622.01147	494.24261	1218.16187	1633.43201	502.67230	1096.33569	1651.70361	514.27423	976.68719	1621.00427	565.30963	833.20923	1663.30798	513.85516	838.83984	1665.03796	545.64740	760.03790	1277.57288	590.60980	964.84979	1499.01343	598.89990	978.24432	1311.61719	434.15076	996.18585	1479.01489	444.92419	998.54401	1239.77856	501.10837	651.58081	1265.37500	483.73718	488.35168	1289.42114	418.75613	238.72112	1345.89221	401.37543	70.13998	1394.85278	363.69858	59.76411	1337.05762	545.89551	38.39824	1571.87500	602.30383	648.75592	1548.36584	642.47894	528.09546	1555.51074	624.95941	267.46548	1521.20276	626.06671	80.00095	1478.14880	586.96674	53.06004	1515.56262	775.31836	48.71645	1369.60779	502.42252	1708.10559																					 
252	2.510	1310.62671	606.95404	1666.48926	1442.22815	608.27246	1657.27258	1312.05188	472.57092	1615.29871	1441.61060	474.60156	1610.86780	1371.05505	467.88251	1458.36548	1388.96301	424.76398	1130.01892	1372.07483	576.48694	1380.14270	1368.13562	613.29181	1203.71509	1456.06079	391.68729	1291.29822	1211.26001	523.55841	1410.55725	1131.40540	543.67920	1211.68506	1114.54626	561.78894	1100.75574	1098.84973	632.93372	967.26440	1152.10706	720.82062	879.37311	1107.75500	671.60962	854.36346	1114.32520	737.57990	793.02655	1532.55225	534.68048	1415.70691	1622.08728	498.76630	1217.65735	1633.52356	507.16028	1095.78540	1651.91809	518.71240	976.15662	1621.38599	569.89539	832.73505	1663.51648	518.32629	838.35382	1665.31384	550.03741	759.49786	1277.49597	596.37640	964.51172	1498.72998	604.56982	977.86798	1311.49292	439.69839	995.70624	1478.95557	450.59552	998.04254	1239.72363	505.92993	651.16772	1265.39673	487.84982	488.05542	1289.27686	420.64297	238.92981	1345.77148	401.62103	70.44796	1394.62402	363.84238	60.19198	1337.20068	545.93274	38.25386	1572.58545	608.29791	648.34790	1548.16699	649.24481	528.07697	1555.61121	638.81927	267.35168	1521.09106	644.32275	80.02041	1478.77576	604.98883	52.93903	1513.05518	794.22107	49.66081	1369.72302	507.68054	1707.66614																					 
253	2.520	1310.78442	612.23730	1666.11865	1442.62073	613.41473	1656.86816	1312.19885	477.97729	1614.89331	1441.78113	479.76947	1610.46399	1371.17517	473.20575	1457.97229	1388.92249	430.44708	1129.45569	1372.34766	581.86725	1379.72864	1368.27869	618.73816	1203.28845	1455.87097	396.94614	1290.62671	1211.40210	529.26691	1410.07324	1131.67847	549.87970	1211.19287	1114.87866	568.40607	1100.27832	1099.62439	641.03101	967.58215	1153.04150	730.30219	881.14362	1109.24988	681.45972	854.95862	1116.05249	747.71143	794.61047	1532.78857	539.60901	1415.16833	1622.16797	503.29803	1217.10889	1633.71155	511.65100	1095.25757	1652.24084	523.15436	975.65582	1621.81372	574.54926	832.24957	1663.77832	522.83447	837.87891	1666.03992	555.01495	759.24640	1277.12903	601.52600	963.87122	1498.58508	610.23724	977.49792	1311.51160	445.37201	995.18488	1478.97229	456.42468	997.59296	1239.71704	510.84003	650.78546	1265.40027	492.04034	487.78577	1289.05444	422.70953	239.08870	1345.59241	401.95685	70.77722	1394.43335	363.98419	60.68126	1337.25208	545.99335	38.22917	1573.24915	614.75427	648.02863	1547.58948	655.97192	527.97089	1555.71948	651.86932	267.50232	1520.98767	661.59552	80.36177	1478.67236	622.31610	53.06787	1510.93872	812.13220	50.90582	1369.97046	512.89539	1707.26892																					 
254	2.530	1311.23633	617.66315	1665.70862	1443.07251	618.58398	1656.45129	1312.40491	483.39929	1614.39880	1442.01001	484.81693	1609.97192	1371.27612	478.62134	1457.52625	1389.02551	436.02725	1128.93481	1372.65186	587.22205	1379.27417	1368.36426	624.15912	1202.82520	1455.68384	402.25378	1289.94897	1211.60229	535.02460	1409.56348	1132.02234	556.13971	1210.69800	1115.17310	575.21216	1099.82788	1100.79736	648.89038	967.73645	1154.34741	739.46851	882.89014	1111.07043	690.21002	855.82867	1117.94958	757.61926	796.14764	1533.05725	544.61053	1414.58362	1622.28259	507.87589	1216.54907	1633.97192	516.27502	1094.70764	1652.44568	527.76593	975.06714	1622.27954	579.29480	831.72498	1664.12415	527.42963	837.32617	1666.20850	559.24634	758.55103	1277.06421	607.12646	963.34241	1498.54578	615.98138	977.06372	1311.68848	450.98828	994.76062	1479.10046	462.17657	997.12518	1239.70898	515.49298	650.45300	1265.33533	496.14899	487.46539	1288.92090	424.74219	239.30771	1345.43799	402.19116	71.15382	1394.21997	364.05502	61.17641	1337.24487	546.05347	38.22129	1573.89404	621.69067	647.93140	1546.81567	662.90002	528.11969	1555.66772	663.74103	267.73593	1520.77808	678.11273	80.90210	1478.54602	639.20032	53.17272	1509.53174	829.45605	52.34985	1370.20325	518.18829	1706.78723																					 
